<?xml version="1.0" encoding="utf-8"?>
<!-- Generator: Adobe Illustrator 21.0.0, SVG Export Plug-In . SVG Version: 6.00 Build 0)  -->
<svg version="1.1" id="Capa_1" xmlns="http://www.w3.org/2000/svg" xmlns:xlink="http://www.w3.org/1999/xlink" x="0px" y="0px"
	 viewBox="0 0 284.9 284.9" style="enable-background:new 0 0 284.9 284.9;" xml:space="preserve">
<style type="text/css">
	.st0{fill:#FFFFFF;}
</style>
<g>
	<path class="st0" d="M284.9,83.1c0-2.5-0.9-4.7-2.8-6.6l-14.3-14.3c-1.9-1.9-4.1-2.8-6.6-2.8c-2.5,0-4.7,0.9-6.6,2.8L142.5,174.4
		L30.3,62.2c-1.9-1.9-4.1-2.9-6.6-2.9s-4.7,1-6.6,2.9L2.9,76.5C1,78.4,0,80.6,0,83.1c0,2.5,0.9,4.7,2.9,6.6l133,133
		c1.9,1.9,4.1,2.9,6.6,2.9s4.7-1,6.6-2.9l133.1-133C284,87.7,284.9,85.6,284.9,83.1z"/>
</g>
</svg>
